<svg xmlns="http://www.w3.org/2000/svg" viewBox="0 0 114 114">
  <!-- Placeholder: Fuji camera, sketchy line drawing -->
  <rect width="114" height="114" fill="#f6f2e9"/>
  <g stroke="#1c1a17" stroke-width="2.5" fill="none" stroke-linecap="round">
    <!-- body -->
    <path d="M16 40 C 15 36, 18 34, 22 34 L 38 34 L 45 26 L 69 26 L 76 34 L 92 34 C 96 34, 99 36, 98 40 L 98 84 C 98 88, 95 90, 91 90 L 23 90 C 19 90, 16 88, 16 84 Z"/>
    <!-- lens outer -->
    <circle cx="57" cy="60" r="20"/>
    <!-- lens inner -->
    <circle cx="57" cy="60" r="12" stroke-width="2"/>
    <circle cx="57" cy="60" r="5" stroke-width="1.8"/>
    <!-- viewfinder -->
    <rect x="76" y="40" width="12" height="8" stroke-width="1.8"/>
    <!-- shutter button -->
    <path d="M28 34 L 28 28 L 36 28" stroke-width="2"/>
  </g>
  <!-- red accent: lens glint -->
  <path d="M50 52 C 52 49, 56 48, 59 49" stroke="#c83c28" stroke-width="2.5" fill="none" stroke-linecap="round"/>
  <path d="M12 100 C 40 96, 75 104, 102 99" stroke="#c83c28" stroke-width="3" fill="none" stroke-linecap="round" opacity="0.85"/>
</svg>